<svg version="1.1" id="Layer_1" xmlns="http://www.w3.org/2000/svg" xmlns:xlink="http://www.w3.org/1999/xlink" x="0px" y="0px" width="100%" viewBox="0 0 1152 470" enable-background="new 0 0 1152 470" xml:space="preserve">

<path fill="#153379" opacity="1.000000" stroke="none" d="
M577.649658,241.692078 
	C569.979675,251.177429 561.851929,260.143250 551.151001,266.410889 
	C538.390991,273.884521 529.449585,269.152405 529.278442,254.325592 
	C529.225891,249.765671 530.292419,245.021805 531.716736,240.645370 
	C538.053345,221.175247 544.732422,201.816803 551.212463,182.392883 
	C552.101501,179.727875 552.920471,176.952469 553.160950,174.175278 
	C553.753296,167.336136 550.481812,165.048248 544.411316,168.448151 
	C540.568970,170.600143 536.949890,173.546860 534.000793,176.829041 
	C521.501038,190.740570 512.362610,206.747559 505.875488,224.245636 
	C500.955811,237.515854 496.197479,250.848450 491.592865,264.230896 
	C490.610504,267.085876 489.350220,268.192505 486.292511,268.027954 
	C481.324707,267.760529 476.331970,267.955872 470.728485,267.955872 
	C474.765625,255.626785 478.724274,243.823944 482.492157,231.960480 
	C487.582550,215.933014 492.619110,199.886856 497.459320,183.782761 
	C498.499420,180.322174 499.022400,176.581711 499.037170,172.967133 
	C499.058319,167.785492 495.768982,165.581223 491.015961,167.737274 
	C487.603851,169.285049 484.311798,171.526611 481.602783,174.122894 
	C468.005524,187.154510 458.704987,203.038864 452.000427,220.480011 
	C446.444366,234.933395 441.126678,249.480286 435.888123,264.052185 
	C434.825562,267.007843 433.447784,268.266113 430.186737,268.034698 
	C425.729401,267.718414 421.232758,267.955688 416.213562,267.955688 
	C418.527374,260.525665 420.699677,253.550095 422.871948,246.574509 
	C422.365845,246.286102 421.859741,245.997681 421.353638,245.709259 
	C419.960968,247.183167 418.696289,248.809586 417.153564,250.104752 
	C410.296936,255.861145 403.839600,262.277008 396.339233,267.038971 
	C385.503052,273.918823 376.641541,269.065643 376.266785,256.193542 
	C376.087433,250.033005 377.439423,243.579941 379.330750,237.652771 
	C385.403351,218.621979 392.102692,199.791916 398.419434,180.837494 
	C399.350616,178.043335 399.928986,174.997498 399.945068,172.064117 
	C399.968903,167.714111 397.165466,165.570969 393.355438,167.590042 
	C388.751099,170.030060 384.165405,173.121765 380.674133,176.939606 
	C364.982788,194.098816 355.399841,214.726425 347.986877,236.507278 
	C344.822021,245.806305 341.307159,254.987701 338.236328,264.316376 
	C337.276978,267.230713 335.864624,268.165314 332.901855,268.019379 
	C328.091431,267.782471 323.260834,267.955536 317.664337,267.955536 
	C318.329041,265.605072 318.831146,263.627625 319.445984,261.685883 
	C327.787415,235.342743 336.195160,209.020340 344.430511,182.644119 
	C345.407166,179.516083 345.889526,176.094315 345.843872,172.819275 
	C345.775818,167.938599 342.518127,165.648621 338.094849,167.604279 
	C334.522583,169.183655 331.053650,171.485123 328.231445,174.189148 
	C314.883453,186.978149 305.701782,202.570099 299.028839,219.652435 
	C293.758484,233.144226 288.880188,246.789536 283.864716,260.380310 
	C281.074188,267.941986 281.108307,267.954651 272.782623,267.954956 
	C269.643982,267.955078 266.505341,267.954956 262.832764,267.954956 
	C267.127075,254.633789 271.352234,241.857086 275.359528,229.012421 
	C280.268463,213.277634 285.099213,197.516357 289.715118,181.694016 
	C290.672546,178.412186 290.941772,174.795532 290.797913,171.363800 
	C290.651001,167.858536 288.311493,166.976273 285.121887,168.398926 
	C279.333862,170.980576 273.324951,181.200821 273.846619,187.404922 
	C275.474609,206.766571 267.813324,222.539307 254.511276,235.869720 
	C239.833664,250.578629 221.935608,259.398499 201.581558,263.076599 
	C197.243073,263.860596 195.080536,265.344452 194.118454,269.854218 
	C192.313950,278.312897 189.776474,286.617157 187.486877,294.970001 
	C184.550812,305.681183 187.435669,309.903168 198.525604,310.949524 
	C200.651398,311.150146 202.788651,311.229156 204.868927,311.360992 
	C205.577194,319.611420 205.432449,319.775909 197.740341,319.775818 
	C182.409546,319.775604 167.078766,319.775818 151.747971,319.775879 
	C149.956116,319.775879 148.164261,319.775879 145.789978,319.775879 
	C146.287872,316.740967 146.682938,314.332825 147.043884,312.132599 
	C147.630234,311.800171 147.919968,311.488434 148.193359,311.502136 
	C159.843170,312.085968 164.548172,305.689545 167.511200,295.032227 
	C178.348877,256.051697 190.036316,217.307449 201.395691,178.471878 
	C201.707306,177.406479 201.928116,176.314529 202.191269,175.234955 
	C201.781937,174.831223 201.372589,174.427475 200.963242,174.023743 
	C191.922989,181.078918 182.882736,188.134109 173.980988,195.081207 
	C172.587067,193.678085 170.870529,191.950226 168.979752,190.046967 
	C178.238770,179.449905 189.336777,171.196793 202.049362,164.928665 
	C204.096313,163.919373 206.121521,161.579636 206.852463,159.414566 
	C209.726852,150.900513 212.173401,142.236282 214.567657,133.569473 
	C215.252686,131.089813 216.213181,129.908218 218.962082,130.067261 
	C222.883789,130.294174 226.828430,130.125000 231.293289,130.125000 
	C228.880554,139.484146 226.651382,148.131210 224.243164,157.472839 
	C242.064819,155.295670 258.689209,155.496552 269.682953,172.783356 
	C271.478119,170.564560 273.074646,168.491486 274.775421,166.507828 
	C279.860687,160.576752 286.123077,156.753616 294.059509,156.183044 
	C301.950653,155.615753 306.448486,158.700439 307.068695,166.536499 
	C307.628784,173.612549 306.731140,180.803986 306.467712,188.186600 
	C307.174408,187.188400 307.966431,185.912277 308.910950,184.761322 
	C314.692749,177.715790 319.938965,170.091324 326.530548,163.902634 
	C330.408447,160.261749 336.220184,157.937195 341.549011,156.733490 
	C354.255707,153.863281 363.520294,162.308258 362.693817,175.457352 
	C362.410065,179.971710 361.161163,184.425415 361.152252,189.403595 
	C362.065674,188.189651 362.923523,186.928833 363.901550,185.769363 
	C370.417389,178.044510 376.478699,169.854370 383.645721,162.786911 
	C389.264191,157.246536 396.896912,155.229736 404.967926,156.558212 
	C412.313934,157.767334 416.036530,161.255157 416.917297,168.574570 
	C417.473907,173.200089 417.021210,177.947052 417.021210,183.482178 
	C417.891754,182.097046 418.488892,180.964661 419.253632,179.959854 
	C423.955872,173.781860 428.165283,167.107330 433.584320,161.633179 
	C438.269745,156.900101 444.848145,155.430908 451.693451,156.462753 
	C456.144806,157.133728 459.616608,159.532150 459.826782,163.963028 
	C460.169159,171.180283 459.513916,178.444885 459.123962,186.355011 
	C458.949921,187.650436 458.931549,188.280365 458.913208,188.910278 
	C459.413879,188.394119 459.914551,187.877945 460.415222,187.361755 
	C465.635803,180.489365 470.497223,173.300812 476.184601,166.839325 
	C481.217255,161.121704 487.834656,157.509277 495.599121,156.373505 
	C507.264435,154.667175 515.885925,161.523682 515.870178,173.283936 
	C515.862793,178.776901 514.428040,184.267960 513.464478,190.985062 
	C514.828186,189.135925 515.569763,188.044205 516.397278,187.022064 
	C522.659119,179.287216 528.439209,171.079269 535.362122,163.987869 
	C541.371948,157.831833 549.406372,155.119308 558.274719,156.562576 
	C565.490112,157.736862 569.097229,160.898560 570.065857,168.113907 
	C570.761047,173.292572 570.201111,178.639725 570.201111,184.517960 
	C571.607361,183.281265 572.792175,181.986298 574.208252,181.035873 
	C582.200562,175.671783 590.115845,170.170441 598.353821,165.207901 
	C601.004211,163.611313 602.608643,162.091293 603.418762,159.081711 
	C605.711426,150.564224 608.476685,142.174133 610.780090,133.659271 
	C611.536621,130.862900 612.797119,129.898514 615.627747,130.070572 
	C619.400452,130.299866 623.197632,130.127228 627.571411,130.127228 
	C626.279053,135.061737 625.136963,139.374191 624.021912,143.693649 
	C622.902039,148.031586 621.809021,152.376495 620.543152,157.351791 
	C623.551758,157.115967 626.109497,156.929932 628.664551,156.713028 
	C658.144287,154.210388 675.183716,173.287354 669.386658,202.458755 
	C665.467773,222.178741 653.216125,236.072449 637.230896,247.068069 
	C624.712830,255.678787 610.810242,261.172333 595.789490,263.551971 
	C592.810242,264.023987 591.609375,265.235565 590.913635,268.028320 
	C588.659912,277.074982 586.191162,286.069122 583.726929,295.062042 
	C580.852539,305.551880 583.655518,309.785858 594.391052,310.911713 
	C596.679443,311.151703 598.983948,311.237457 601.922913,311.438080 
	C601.497559,314.279358 601.120178,316.800293 600.714966,319.507141 
	C581.132690,319.507141 561.883911,319.507141 542.200134,319.507141 
	C542.588867,316.769165 542.931763,314.354309 543.287598,311.848541 
	C544.479797,311.600464 545.429626,311.309662 546.398438,311.215454 
	C557.910950,310.096100 559.635437,308.624939 562.894226,297.432556 
	C568.154053,279.367767 573.464905,261.317841 578.864868,242.612061 
	C578.773926,241.470367 578.572388,240.978241 578.370850,240.486115 
	C578.130493,240.888123 577.890076,241.290100 577.649658,241.692078 
M636.607788,228.057816 
	C645.644226,215.618912 650.737061,202.055130 648.138855,186.427795 
	C645.686584,171.678436 636.941528,165.354431 622.110474,166.853699 
	C618.358093,167.233002 617.163025,168.878479 616.306396,172.181992 
	C610.626099,194.088516 604.759033,215.946609 598.950806,237.819962 
	C597.476379,243.372696 595.994751,248.923538 594.282715,255.352997 
	C612.026978,251.041199 625.603149,242.212418 636.607788,228.057816 
M236.863968,232.344574 
	C247.869858,219.381561 254.283310,204.846146 252.052734,187.427658 
	C250.119339,172.329956 240.919235,165.274994 225.873444,166.878235 
	C222.561050,167.231186 220.984665,168.337860 220.132523,171.666107 
	C215.181000,191.005341 209.999466,210.285751 204.887589,229.583893 
	C202.694214,237.864258 200.481308,246.139435 198.034424,255.328979 
	C213.820007,251.599319 226.182816,244.096939 236.863968,232.344574 
M410.081085,204.659103 
	C406.188873,216.697052 402.195740,228.703949 398.473358,240.794189 
	C397.507812,243.930161 397.154968,247.312424 396.951172,250.608185 
	C396.767517,253.579056 398.545685,254.536804 401.159698,253.171616 
	C402.912231,252.256332 404.713470,251.197678 406.064026,249.791306 
	C411.249908,244.391144 416.161224,238.725342 421.400757,233.379944 
	C423.005096,231.743210 425.332428,230.815170 427.328705,229.562592 
	C427.644043,229.907532 427.959381,230.252487 428.274719,230.597443 
	C432.057434,218.524689 435.986572,206.495132 439.563965,194.361832 
	C441.489563,187.830856 443.059479,181.166122 444.252655,174.466049 
	C444.600586,172.512344 443.097687,170.229050 442.443146,168.096817 
	C440.198212,168.809570 437.101410,168.832016 435.862915,170.360336 
	C431.596191,175.625565 427.703888,181.251450 424.205719,187.063065 
	C421.675049,191.267334 419.995880,195.984146 417.900970,200.550827 
	C415.939026,199.687439 414.300262,198.966293 412.386292,198.124008 
	C411.634644,200.194687 410.961151,202.050064 410.081085,204.659103 
M583.587769,184.065292 
	C579.231750,187.892639 574.875793,191.719971 570.460632,195.599289 
	C569.398682,194.866913 568.412659,194.186905 567.002441,193.214355 
	C561.555298,210.296326 556.228516,226.900497 551.000427,243.535690 
	C550.410339,245.413254 550.175659,247.460739 550.126160,249.438171 
	C550.015259,253.877899 551.885315,255.061157 555.587280,252.557770 
	C558.726379,250.434998 561.631165,247.845184 564.238098,245.083054 
	C568.574341,240.488632 572.583130,235.585556 576.751160,230.831131 
	C577.057190,230.482025 577.534485,230.283127 577.881531,230.048630 
	C579.288330,230.531204 580.593323,230.978882 582.177002,231.522125 
	C587.729065,212.496979 593.153564,193.908844 598.578064,175.320724 
	C598.236328,175.045029 597.894531,174.769333 597.552734,174.493652 
	C593.086182,177.541168 588.619629,180.588669 583.587769,184.065292 
M421.928925,244.742584 
	C421.963593,245.142227 421.998291,245.541855 422.032990,245.941498 
	C422.412048,245.809937 422.791107,245.678375 423.170166,245.546814 
	C422.992096,245.054001 422.813995,244.561203 421.928925,244.742584 
z" data-index="1" style="opacity: 1;"></path>
<path fill="#143378" opacity="1.000000" stroke="none" d="
M752.926514,157.919418 
	C760.201233,160.649612 764.057434,165.966537 766.319336,174.201599 
	C771.094849,156.669724 775.493286,140.544418 779.875366,124.414665 
	C780.704590,121.362465 781.569580,118.314560 782.241821,115.226295 
	C783.496948,109.460144 781.883667,106.784538 776.128784,105.406532 
	C773.405823,104.754501 770.562195,104.606705 767.640381,104.212547 
	C767.443237,99.753029 769.025879,97.854996 773.900330,97.810493 
	C784.516663,97.713562 795.126648,96.906380 806.571899,96.348907 
	C804.497803,104.143112 802.590698,111.454712 800.605713,118.745079 
	C790.018982,157.626511 779.394897,196.497803 768.842163,235.388443 
	C767.842224,239.073517 766.866760,242.842087 766.606995,246.621857 
	C766.454590,248.840332 767.075623,252.196747 768.560181,253.145279 
	C770.121765,254.142960 773.561035,253.599670 775.426575,252.477463 
	C782.851807,248.010788 788.894714,241.810760 792.143188,233.799866 
	C798.646179,217.762924 804.545593,201.478577 810.527100,185.234863 
	C811.926025,181.435867 812.658447,177.391449 812.897400,172.894028 
	C801.862610,175.389572 797.253540,185.261063 789.793091,192.127975 
	C788.258850,191.350876 786.679504,190.550919 784.418701,189.405792 
	C793.552612,174.665222 803.530823,161.404617 821.044739,156.672058 
	C829.331421,154.432861 835.279358,159.021423 834.712158,167.579056 
	C834.267578,174.287354 832.684570,181.103378 830.465210,187.473633 
	C825.483337,201.773087 819.530640,215.733719 814.518616,230.023560 
	C812.565125,235.593185 811.716064,241.639954 811.108337,247.545944 
	C810.878296,249.782516 812.151367,253.423218 813.821777,254.258026 
	C815.526794,255.110168 819.192017,254.020996 820.894043,252.524750 
	C825.868103,248.151932 830.721558,243.495941 834.844971,238.330475 
	C845.002502,225.605972 852.452637,211.316757 857.923889,195.971878 
	C861.949890,184.680649 866.315308,173.509171 870.241516,162.184509 
	C871.382568,158.893402 873.032349,157.855621 876.400269,158.080612 
	C881.030579,158.389923 885.697083,158.158051 891.072815,158.158051 
	C888.090332,167.425995 885.175415,176.194153 882.447388,185.020065 
	C876.450623,204.420990 870.462341,223.825562 864.686768,243.292801 
	C863.647705,246.794922 861.800110,251.877151 866.014038,253.531311 
	C868.416443,254.474319 872.872253,251.595230 875.764771,249.538895 
	C879.757935,246.700012 881.381287,242.423111 882.624573,237.406021 
	C887.065247,219.485992 892.230652,201.736572 897.471924,184.026215 
	C903.802307,162.636154 910.239807,141.270828 917.113770,120.051193 
	C921.358887,106.946472 915.889465,105.439827 906.098206,104.561859 
	C905.277344,104.488243 904.454834,104.431717 903.351929,104.345192 
	C903.545105,100.066444 904.792542,97.856018 909.751343,97.814095 
	C921.043762,97.718628 932.330200,96.912384 944.506653,96.354301 
	C935.993042,122.193687 927.664856,147.470383 919.336670,172.747086 
	C919.580933,172.975082 919.825134,173.203094 920.069336,173.431091 
	C921.131165,172.416275 922.256958,171.459839 923.244446,170.377258 
	C930.360535,162.575836 938.947632,157.678757 949.601807,156.571869 
	C965.964233,154.871964 977.400085,164.114578 978.949463,180.652008 
	C980.246094,194.492218 976.896301,207.527161 970.931824,219.834442 
	C960.920593,240.491699 946.789978,257.490662 925.060059,266.463562 
	C919.118896,268.916870 912.113403,269.774567 905.619995,269.683350 
	C895.326294,269.538727 887.949707,263.722046 883.245850,254.236572 
	C880.029541,257.239349 877.350342,260.529724 873.958069,262.711426 
	C869.557129,265.541840 864.805054,268.327576 859.812561,269.618134 
	C852.560425,271.492828 848.348877,268.201721 846.999023,260.796844 
	C846.376160,257.380493 846.292053,253.851700 846.148804,250.366272 
	C846.013184,247.066040 846.119690,243.755844 845.206055,239.950989 
	C844.356567,241.167511 843.610535,242.474243 842.640747,243.585785 
	C836.757629,250.328781 831.204163,257.421539 824.787048,263.616913 
	C819.593140,268.631378 812.608704,270.314362 805.333069,269.993408 
	C796.677429,269.611633 791.866272,265.465942 790.088013,256.954742 
	C789.827515,255.707932 789.677673,254.437988 789.403809,252.722672 
	C784.991028,256.511292 781.162598,260.135254 776.985229,263.298431 
	C771.892090,267.154968 766.352417,270.216278 759.621338,270.025604 
	C750.845398,269.777008 746.843811,265.810822 746.762512,257.040985 
	C746.733337,253.896439 747.054138,250.748642 747.291626,246.109055 
	C745.544128,248.375504 744.571899,249.700089 743.534546,250.971558 
	C736.317627,259.817139 727.901367,266.920776 716.324341,269.236084 
	C697.022705,273.096283 681.869141,261.661774 679.944336,242.043930 
	C678.738464,229.754105 681.351685,218.167435 686.045410,206.976181 
	C694.047974,187.895752 705.974854,172.003235 724.244385,161.565720 
	C733.106934,156.502487 742.500610,154.409805 752.926514,157.919418 
M710.967651,256.883057 
	C716.930725,259.000946 722.649902,257.526855 726.862549,253.598694 
	C733.248047,247.644379 738.668518,240.663773 744.643372,234.253784 
	C746.018066,232.779007 747.978882,231.850525 749.669983,230.670624 
	C750.028137,231.049301 750.386230,231.427979 750.744385,231.806656 
	C754.983398,216.042740 759.222412,200.278839 763.601013,183.995956 
	C762.181702,184.333069 761.820251,184.331635 761.560669,184.493515 
	C756.804138,187.460037 752.063782,187.600525 747.671631,183.960709 
	C743.484375,180.490707 743.324219,176.015106 745.213135,171.247925 
	C746.774841,167.306274 744.692993,166.014755 741.211426,165.928619 
	C735.470093,165.786514 730.775818,168.442413 727.041870,172.373688 
	C708.357361,192.045547 700.192078,215.628479 701.936768,242.589508 
	C702.311523,248.381699 704.649841,253.605194 710.967651,256.883057 
M924.651794,183.188171 
	C919.455017,192.074402 913.617920,200.656784 909.221252,209.922653 
	C903.537842,221.900375 900.291260,234.679794 901.920776,248.190262 
	C903.137634,258.279053 909.940735,262.296326 918.913025,257.542877 
	C923.801697,254.952911 928.432739,251.291229 932.149719,247.181198 
	C945.035828,232.932144 953.213318,216.075500 957.076477,197.315857 
	C958.294800,191.399643 958.761169,185.010712 957.944458,179.061523 
	C956.394531,167.771576 947.690552,164.061981 938.245544,170.521179 
	C933.376831,173.850693 929.439270,178.541748 924.651794,183.188171 
z" data-index="2" style="opacity: 1;"></path>
<path fill="#153479" opacity="1.000000" stroke="none" d="
M658.275513,241.922104 
	C667.032837,239.822372 673.867188,242.878616 676.801880,249.908249 
	C679.567261,256.532379 677.266846,263.831390 671.165161,267.793091 
	C665.337952,271.576599 657.368347,270.536713 652.500732,265.357727 
	C645.875916,258.309113 648.376343,247.518356 658.275513,241.922104 
z" data-index="3"></path>

<path fill="#FCFCFD" opacity="1.000000" stroke="none" d="
M236.636292,232.616577 
	C226.182816,244.096939 213.820007,251.599319 198.034424,255.328979 
	C200.481308,246.139435 202.694214,237.864258 204.887589,229.583893 
	C209.999466,210.285751 215.181000,191.005341 220.132523,171.666107 
	C220.984665,168.337860 222.561050,167.231186 225.873444,166.878235 
	C240.919235,165.274994 250.119339,172.329956 252.052734,187.427658 
	C254.283310,204.846146 247.869858,219.381561 236.636292,232.616577 
z" data-index="5" style="opacity: 1; visibility: hidden;"></path>

<path fill="#FAFAFC" opacity="1.000000" stroke="none" d="
M583.870361,183.850739 
	C588.619629,180.588669 593.086182,177.541168 597.552734,174.493652 
	C597.894531,174.769333 598.236328,175.045029 598.578064,175.320724 
	C593.153564,193.908844 587.729065,212.496979 582.177002,231.522125 
	C580.593323,230.978882 579.288330,230.531204 577.881531,230.048630 
	C577.534485,230.283127 577.057190,230.482025 576.751160,230.831131 
	C572.583130,235.585556 568.574341,240.488632 564.238098,245.083054 
	C561.631165,247.845184 558.726379,250.434998 555.587280,252.557770 
	C551.885315,255.061157 550.015259,253.877899 550.126160,249.438171 
	C550.175659,247.460739 550.410339,245.413254 551.000427,243.535690 
	C556.228516,226.900497 561.555298,210.296326 567.002441,193.214355 
	C568.412659,194.186905 569.398682,194.866913 570.460632,195.599289 
	C574.875793,191.719971 579.231750,187.892639 583.870361,183.850739 
z" data-index="7" style="opacity: 1; visibility: hidden;"></path>
<path fill="#FFFFFF" opacity="1.000000" stroke="none" d="
M460.132446,187.136017 
	C459.914551,187.877945 459.413879,188.394119 458.913208,188.910278 
	C458.931549,188.280365 458.949921,187.650436 459.111450,186.759537 
	C459.452942,186.635788 459.651306,186.773026 460.132446,187.136017 
z" data-index="8"></path>
<path fill="#FFFFFF" opacity="1.000000" stroke="none" d="
M577.911133,241.902740 
	C577.890076,241.290100 578.130493,240.888123 578.370850,240.486115 
	C578.572388,240.978241 578.773926,241.470367 578.855469,242.221130 
	C578.547913,242.357651 578.360291,242.235519 577.911133,241.902740 
z" data-index="9"></path>
<path fill="#FFFFFF" opacity="1.000000" stroke="none" d="
M422.282410,244.405487 
	C422.813995,244.561203 422.992096,245.054001 423.170166,245.546814 
	C422.791107,245.678375 422.412048,245.809937 422.032990,245.941498 
	C421.998291,245.541855 421.963593,245.142227 422.282410,244.405487 
z" data-index="10"></path>

<path fill="#FCFDFE" opacity="1.000000" stroke="none" d="
M924.866333,182.902878 
	C929.439270,178.541748 933.376831,173.850693 938.245544,170.521179 
	C947.690552,164.061981 956.394531,167.771576 957.944458,179.061523 
	C958.761169,185.010712 958.294800,191.399643 957.076477,197.315857 
	C953.213318,216.075500 945.035828,232.932144 932.149719,247.181198 
	C928.432739,251.291229 923.801697,254.952911 918.913025,257.542877 
	C909.940735,262.296326 903.137634,258.279053 901.920776,248.190262 
	C900.291260,234.679794 903.537842,221.900375 909.221252,209.922653 
	C913.617920,200.656784 919.455017,192.074402 924.866333,182.902878 
z" data-index="12" style="opacity: 1; visibility: hidden;"></path>
</svg>